# xmcd
#
# Track frame offsets: 
#        150
#        21058
#        44070
#        63632
#        85595
#        105561
#        125966
#        148569
#
# Disc length: 2292 seconds
#
# Revision: 0
# Processed by: cddbd v1.5.2PL0 Copyright (c) Steve Scherf et al.
# Submitted via: ExactAudioCopyFreeDBPlugin 1.0
#
DISCID=7008f208
DTITLE=Digimusic Essentials Collection - Country Western
DYEAR=2005
DGENRE=Country
TTITLE0=In Tennessee
TTITLE1=So Little Time
TTITLE2=The One For Sure
TTITLE3=Hoe-Down
TTITLE4=Best Western
TTITLE5=Hot Rod Hattie
TTITLE6=Down Home Shuffle
TTITLE7=The California Waltz
EXTD=
EXTT0=
EXTT1=
EXTT2=
EXTT3=
EXTT4=
EXTT5=
EXTT6=
EXTT7=
PLAYORDER=
